<svg width="512" height="512" viewBox="0 0 512 512" fill="none" xmlns="http://www.w3.org/2000/svg">
  <rect width="512" height="512" rx="96" fill="none"/>
  <path d="M120 96C84.7 96 56 124.7 56 160V352c0 35.3 28.7 64 64 64h132l-92 64 32-80h200c35.3 0 64-28.7 64-64V160c0-35.3-28.7-64-64-64H120Z" fill="#1B6FB8"/>
  <circle cx="180" cy="244" r="32" fill="#0B0B0B"/>
  <circle cx="256" cy="244" r="32" fill="#0B0B0B"/>
  <circle cx="332" cy="244" r="32" fill="#0B0B0B"/>
  <circle cx="320" cy="352" r="92" fill="#2D3E58"/>
  <path d="M274.5 306.5 306.5 338.5 338.5 306.5 365.5 333.5 333.5 365.5 365.5 397.5 338.5 424.5 306.5 392.5 274.5 424.5 247.5 397.5 279.5 365.5 247.5 333.5 274.5 306.5Z" fill="#0B0B0B"/>
</svg>
